<svg xmlns="http://www.w3.org/2000/svg" id="prefix__ic_male" width="12.353" height="30" viewBox="0 0 12.353 30">
    <defs>
        <style>
            .prefix__cls-1{fill:#555}
        </style>
    </defs>
    <path id="prefix__Path_1719" d="M347.791 58.647a3.824 3.824 0 1 1 3.824-3.824 3.828 3.828 0 0 1-3.824 3.824zm0-5.882a2.059 2.059 0 1 0 2.059 2.059 2.061 2.061 0 0 0-2.059-2.059z" class="prefix__cls-1" data-name="Path 1719" transform="translate(-341.614 -51)"></path>
    <path id="prefix__Path_1720" d="M315.2 184.765a.883.883 0 0 1-.882-.882v-7.353h-1.471a.883.883 0 0 1-.882-.882v-8.235a4.424 4.424 0 0 1 4.413-4.413h3.53a4.423 4.423 0 0 1 4.412 4.411v8.236a.883.883 0 0 1-.882.882h-1.471v7.353a.883.883 0 0 1-.882.882zm5-1.765v-15.294h1.765v7.059h.588v-7.353a2.655 2.655 0 0 0-2.647-2.647h-3.529a2.655 2.655 0 0 0-2.647 2.647v7.353h.588v-7.059h1.765V183h1.176v-8.235h1.765V183z" class="prefix__cls-1" data-name="Path 1720" transform="translate(-311.967 -154.765)"></path>
</svg>