<?xml version="1.0" encoding="UTF-8" standalone="no"?><!DOCTYPE svg PUBLIC "-//W3C//DTD SVG 1.1//EN" "http://www.w3.org/Graphics/SVG/1.1/DTD/svg11.dtd"><svg width="100%" height="100%" viewBox="0 0 22 5" version="1.1" xmlns="http://www.w3.org/2000/svg" xmlns:xlink="http://www.w3.org/1999/xlink" xml:space="preserve" xmlns:serif="http://www.serif.com/" style="fill-rule:evenodd;clip-rule:evenodd;stroke-linejoin:round;stroke-miterlimit:2;"><g id="Schnuppy-Logo" serif:id="Schnuppy Logo"><path d="M0.793,3.325c-0.246,-0 -0.503,-0.065 -0.707,-0.144c-0.071,-0.028 -0.099,-0.084 -0.08,-0.149l0.085,-0.26c0.024,-0.07 0.076,-0.117 0.152,-0.089c0.171,0.061 0.346,0.131 0.522,0.131c0.152,-0 0.213,-0.07 0.213,-0.168c-0,-0.139 -0.161,-0.214 -0.351,-0.307c-0.256,-0.13 -0.555,-0.265 -0.555,-0.679c0,-0.377 0.256,-0.665 0.754,-0.665c0.238,0 0.361,0.019 0.574,0.103c0.067,0.027 0.119,0.083 0.095,0.148l-0.081,0.21c-0.028,0.069 -0.08,0.116 -0.147,0.093c-0.094,-0.033 -0.227,-0.093 -0.388,-0.093c-0.133,-0 -0.19,0.079 -0.19,0.167c-0,0.102 0.185,0.181 0.384,0.284c0.246,0.125 0.522,0.283 0.522,0.706c-0,0.34 -0.209,0.712 -0.802,0.712" style="fill:#fff;fill-rule:nonzero;"/><path d="M3.406,3.246c-0.151,0.056 -0.332,0.079 -0.507,0.079c-0.622,-0 -1.015,-0.363 -1.015,-1.195c-0,-0.633 0.355,-1.135 1.062,-1.135c0.142,0 0.294,0.028 0.427,0.079c0.085,0.033 0.1,0.093 0.085,0.144l-0.085,0.266c-0.019,0.055 -0.062,0.097 -0.152,0.074c-0.066,-0.019 -0.123,-0.042 -0.227,-0.042c-0.304,0 -0.475,0.191 -0.475,0.614c0,0.465 0.133,0.66 0.484,0.66c0.085,0 0.204,-0.009 0.294,-0.037c0.081,-0.023 0.119,0.014 0.133,0.079l0.052,0.274c0.014,0.065 0,0.112 -0.076,0.14" style="fill:#fff;fill-rule:nonzero;"/><path d="M5.469,3.293l-0.36,-0c-0.071,-0 -0.128,-0.056 -0.128,-0.126l-0,-1.47c-0,-0.111 -0.048,-0.195 -0.195,-0.195c-0.204,-0 -0.351,0.181 -0.351,0.461l0,1.204c0,0.07 -0.056,0.126 -0.128,0.126l-0.36,-0c-0.071,-0 -0.128,-0.056 -0.128,-0.126l-0,-3.041c-0,-0.07 0.057,-0.126 0.128,-0.126l0.36,-0c0.072,-0 0.128,0.056 0.128,0.126l0,1.12c0.128,-0.134 0.332,-0.251 0.579,-0.251c0.356,0 0.584,0.233 0.584,0.582l-0,1.59c-0,0.07 -0.058,0.126 -0.129,0.126" style="fill:#fff;fill-rule:nonzero;"/><path d="M7.722,3.293l-0.36,-0c-0.071,-0 -0.129,-0.056 -0.129,-0.126l0,-1.47c0,-0.111 -0.047,-0.195 -0.194,-0.195c-0.204,-0 -0.351,0.191 -0.351,0.461l0,1.204c0,0.07 -0.057,0.126 -0.128,0.126l-0.36,-0c-0.072,-0 -0.128,-0.056 -0.128,-0.126l-0,-1.99c-0,-0.07 0.056,-0.126 0.128,-0.126l0.279,-0c0.076,-0 0.119,0.047 0.133,0.112l0.029,0.125c0.18,-0.19 0.379,-0.293 0.626,-0.293c0.356,0 0.583,0.233 0.583,0.582l0,1.59c0,0.07 -0.057,0.126 -0.128,0.126" style="fill:#fff;fill-rule:nonzero;"/><path d="M10.013,3.293l-0.275,-0c-0.076,-0 -0.119,-0.047 -0.133,-0.112l-0.033,-0.14c-0.181,0.186 -0.403,0.284 -0.65,0.284c-0.356,-0 -0.607,-0.233 -0.607,-0.581l-0,-1.567c-0,-0.07 0.057,-0.126 0.128,-0.126l0.36,-0c0.072,-0 0.128,0.056 0.128,0.126l0,1.446c0,0.111 0.072,0.195 0.219,0.195c0.204,0 0.374,-0.191 0.374,-0.46l0,-1.181c0,-0.07 0.057,-0.126 0.128,-0.126l0.361,-0c0.071,-0 0.128,0.056 0.128,0.126l0,1.99c0,0.07 -0.057,0.126 -0.128,0.126" style="fill:#fff;fill-rule:nonzero;"/><path d="M12.204,3.125c-0.095,0.093 -0.271,0.2 -0.479,0.2c-0.28,-0 -0.403,-0.102 -0.512,-0.214l-0,0.972c-0,0.07 -0.057,0.126 -0.128,0.126l-0.361,-0c-0.071,-0 -0.128,-0.056 -0.128,-0.126l0,-2.906c0,-0.07 0.057,-0.126 0.128,-0.126l0.252,0c0.071,0 0.137,0.051 0.156,0.126l0.033,0.144c0.081,-0.168 0.285,-0.326 0.541,-0.326c0.394,0 0.783,0.191 0.783,1.195c-0,0.363 -0.062,0.716 -0.285,0.935m-0.693,-1.59c-0.194,-0 -0.322,0.172 -0.322,0.623c-0,0.46 0.123,0.651 0.322,0.651c0.238,-0 0.332,-0.196 0.332,-0.651c0,-0.493 -0.132,-0.623 -0.332,-0.623" style="fill:#fff;fill-rule:nonzero;"/><path d="M14.499,3.125c-0.094,0.093 -0.27,0.2 -0.479,0.2c-0.28,-0 -0.403,-0.102 -0.512,-0.214l-0,0.972c-0,0.07 -0.057,0.126 -0.128,0.126l-0.36,-0c-0.072,-0 -0.129,-0.056 -0.129,-0.126l0,-2.906c0,-0.07 0.057,-0.126 0.129,-0.126l0.251,0c0.071,0 0.137,0.051 0.156,0.126l0.034,0.144c0.08,-0.168 0.284,-0.326 0.54,-0.326c0.394,0 0.783,0.191 0.783,1.195c0,0.363 -0.062,0.716 -0.285,0.935m-0.692,-1.59c-0.195,-0 -0.323,0.172 -0.323,0.623c0,0.46 0.124,0.651 0.323,0.651c0.237,-0 0.332,-0.196 0.332,-0.651c-0,-0.493 -0.133,-0.623 -0.332,-0.623" style="fill:#fff;fill-rule:nonzero;"/><path d="M16.377,3.409c-0.123,0.446 -0.346,0.665 -0.616,0.786l-0.105,0.046c-0.066,0.028 -0.133,0 -0.165,-0.065l-0.133,-0.251c-0.034,-0.065 -0,-0.135 0.066,-0.163c0.242,-0.112 0.408,-0.302 0.474,-0.637l-0.189,0c-0.076,0 -0.128,-0.042 -0.152,-0.116l-0.579,-1.814c-0.028,-0.088 0.019,-0.144 0.09,-0.144l0.418,-0c0.08,-0 0.123,0.046 0.142,0.116l0.337,1.302c0.033,0.121 0.047,0.21 0.047,0.34c0.019,-0.103 0.033,-0.2 0.067,-0.34l0.303,-1.302c0.014,-0.07 0.071,-0.116 0.142,-0.116l0.37,-0c0.072,-0 0.119,0.056 0.09,0.153l-0.607,2.205Z" style="fill:#fff;fill-rule:nonzero;"/><path d="M17.425,3.325c-0.208,-0 -0.379,-0.167 -0.379,-0.372c0,-0.205 0.171,-0.372 0.379,-0.372c0.209,0 0.38,0.167 0.38,0.372c-0,0.205 -0.171,0.372 -0.38,0.372" style="fill:#fff;fill-rule:nonzero;"/><path d="M19.617,3.246c-0.152,0.056 -0.332,0.079 -0.508,0.079c-0.621,-0 -1.015,-0.363 -1.015,-1.195c0,-0.633 0.356,-1.135 1.063,-1.135c0.142,0 0.294,0.028 0.426,0.079c0.086,0.033 0.1,0.093 0.086,0.144l-0.086,0.266c-0.018,0.055 -0.061,0.097 -0.151,0.074c-0.067,-0.019 -0.124,-0.042 -0.228,-0.042c-0.304,0 -0.474,0.191 -0.474,0.614c-0,0.465 0.133,0.66 0.483,0.66c0.086,0 0.205,-0.009 0.294,-0.037c0.081,-0.023 0.119,0.014 0.133,0.079l0.053,0.274c0.014,0.065 -0,0.112 -0.076,0.14" style="fill:#fff;fill-rule:nonzero;"/><path d="M21.699,3.293l-0.361,-0c-0.071,-0 -0.128,-0.056 -0.128,-0.126l-0,-1.47c-0,-0.111 -0.047,-0.195 -0.195,-0.195c-0.204,-0 -0.35,0.181 -0.35,0.461l-0,1.204c-0,0.07 -0.057,0.126 -0.129,0.126l-0.36,-0c-0.071,-0 -0.128,-0.056 -0.128,-0.126l0,-3.041c0,-0.07 0.057,-0.126 0.128,-0.126l0.36,-0c0.072,-0 0.129,0.056 0.129,0.126l-0,1.12c0.128,-0.134 0.332,-0.251 0.578,-0.251c0.356,0 0.584,0.233 0.584,0.582l-0,1.59c-0,0.07 -0.057,0.126 -0.128,0.126" style="fill:#fff;fill-rule:nonzero;"/></g></svg>