<svg xmlns="http://www.w3.org/2000/svg" id="prefix__Group_11034" width="290.348" height="499.305" data-name="Group 11034" viewBox="0 0 290.348 499.305">
    <defs>
        <style>
            .prefix__cls-1{fill:#fff}.prefix__cls-2{fill:#806b71}.prefix__cls-3{fill:#231f20}.prefix__cls-4{fill:#009dd2}
        </style>
    </defs>
    <path id="prefix__Path_1" d="M70.148 65.77L72.1 32.509 86.974 23.9l7.043 27 10.174 31.7 18.783 31.7 25.043 26.6 1.174 14.087-1.174 180-17.217 1.174-65.739 4.3-9 .391H27.5l-4.7-181.561 5.87-10.957 25.43-41.869 15.261-40.7z" class="prefix__cls-1" data-name="Path 1" transform="translate(62.504 63.752)"/>
    <g id="prefix__Group_1" data-name="Group 1" transform="translate(46.174 448.044)">
        <path id="prefix__Path_2" d="M65.73 124.587a2.789 2.789 0 0 0 2.348-1.174v-.391l-3.13-3.522a2.152 2.152 0 0 0-1.957 1.174 2.388 2.388 0 0 0 1.174 3.522h.391c.392.004.783.391 1.174.391z" class="prefix__cls-2" data-name="Path 2" transform="translate(132.27 -105.804)"/>
        <path id="prefix__Path_3" d="M56.883 118.739a2.959 2.959 0 0 0 1.565.391 2.789 2.789 0 0 0 2.348-1.174 3.528 3.528 0 0 0 .392-1.956l-5.478.391a1.744 1.744 0 0 0 1.173 2.348z" class="prefix__cls-2" data-name="Path 3" transform="translate(111.769 -116)"/>
        <path id="prefix__Path_4" d="M63.278 120.713a2.388 2.388 0 0 0-1.174-3.522h-.391a2.625 2.625 0 1 0-2.348 4.7h.391a1.437 1.437 0 0 0 1.174.391c.783-.395 1.957-.782 2.348-1.569z" class="prefix__cls-2" data-name="Path 4" transform="translate(118.287 -113.67)"/>
        <path id="prefix__Path_5" d="M64.213 118.491a2.388 2.388 0 0 0-3.522 1.174 2.32 2.32 0 0 0 1.174 3.522h.391a1.438 1.438 0 0 0 1.174.391 2.789 2.789 0 0 0 2.348-1.174 3.72 3.72 0 0 0-1.565-3.913z" class="prefix__cls-2" data-name="Path 5" transform="translate(125.57 -109.883)"/>
        <path id="prefix__Path_6" d="M68.041 130a1.437 1.437 0 0 0 1.174.391 2.033 2.033 0 0 0 1.565-.783 41 41 0 0 1-3.13-4.3c-.391.391-.783.391-1.174 1.174A3.159 3.159 0 0 0 68.041 130z" class="prefix__cls-2" data-name="Path 6" transform="translate(143.263 -88.909)"/>
        <path id="prefix__Path_7" d="M62.274 126.43a2.789 2.789 0 0 0 2.348-1.174 2.388 2.388 0 0 0-1.174-3.522h-.391c-1.174-.783-2.739 0-3.522 1.174s0 2.739 1.174 3.522c.391-.391.782 0 1.565 0z" class="prefix__cls-2" data-name="Path 7" transform="translate(122.422 -100.213)"/>
        <path id="prefix__Path_8" d="M55.956 117.8c-1.565-.783-3.13-.391-3.522.783-.783 1.174 0 2.739 1.174 3.522a1.437 1.437 0 0 0 1.174.391 2.789 2.789 0 0 0 2.348-1.174 2.388 2.388 0 0 0-1.174-3.522z" class="prefix__cls-2" data-name="Path 8" transform="translate(101.74 -111.933)"/>
        <path id="prefix__Path_9" d="M65.641 128.639a1.437 1.437 0 0 0 1.174.391 2.789 2.789 0 0 0 2.348-1.174 2.388 2.388 0 0 0-1.174-3.522H67.6c-1.174-.783-2.739 0-3.522 1.174-.394.783.389 2.348 1.563 3.131z" class="prefix__cls-2" data-name="Path 9" transform="translate(136.272 -92.639)"/>
        <path id="prefix__Path_10" d="M58.57 124.739a1.438 1.438 0 0 0 1.174.391 2.789 2.789 0 0 0 2.348-1.174 2.388 2.388 0 0 0-1.174-3.522h-.391c-1.174-.783-2.739 0-3.522 1.174a2.6 2.6 0 0 0 1.565 3.131z" class="prefix__cls-2" data-name="Path 10" transform="translate(115.56 -104)"/>
        <path id="prefix__Path_11" d="M58.356 119.1c-1.565-.783-3.13-.391-3.522.783-.783 1.174 0 2.739 1.174 3.522a1.437 1.437 0 0 0 1.174.391 2.789 2.789 0 0 0 2.348-1.174c.783-1.171 0-2.736-1.174-3.522z" class="prefix__cls-2" data-name="Path 11" transform="translate(108.731 -108.146)"/>
        <path id="prefix__Path_12" d="M64.574 127.73a2.789 2.789 0 0 0 2.348-1.174 2.388 2.388 0 0 0-1.174-3.522h-.391c-1.174-.783-2.739 0-3.522 1.174s0 2.739 1.174 3.522z" class="prefix__cls-2" data-name="Path 12" transform="translate(129.122 -96.426)"/>
        <path id="prefix__Path_13" d="M51.083 119.63a1.437 1.437 0 0 0 1.174.391 2.789 2.789 0 0 0 2.348-1.174 2.5 2.5 0 0 0 0-2.348l-4.7.391a2.021 2.021 0 0 0 1.178 2.74z" class="prefix__cls-2" data-name="Path 13" transform="translate(94.873 -114.543)"/>
        <path id="prefix__Path_14" d="M47.97 122.7a1.438 1.438 0 0 0 1.174.391 2.789 2.789 0 0 0 2.348-1.174 2.388 2.388 0 0 0-1.174-3.522h-.391a2.388 2.388 0 0 0-3.522 1.174 2.6 2.6 0 0 0 1.565 3.13z" class="prefix__cls-2" data-name="Path 14" transform="translate(84.682 -110.174)"/>
        <path id="prefix__Path_15" d="M59.841 129.239a1.437 1.437 0 0 0 1.174.391 2.789 2.789 0 0 0 2.348-1.174 2.388 2.388 0 0 0-1.174-3.522H61.8c-1.174-.783-2.739 0-3.522 1.174-.394.783.389 2.348 1.563 3.131z" class="prefix__cls-2" data-name="Path 15" transform="translate(119.377 -90.891)"/>
        <path id="prefix__Path_16" d="M52.383 125.3a2.958 2.958 0 0 0 1.565.391 2.789 2.789 0 0 0 2.348-1.174 2.388 2.388 0 0 0-1.174-3.522h-.391a2.388 2.388 0 0 0-3.522 1.174c-.391 1.17 0 2.731 1.174 3.131z" class="prefix__cls-2" data-name="Path 16" transform="translate(98.66 -102.6)"/>
        <path id="prefix__Path_17" d="M68.305 131.056a2.388 2.388 0 0 0-1.174-3.522h-.391c-1.174-.783-2.739 0-3.522 1.174a2.5 2.5 0 0 0 0 2.348c1.565.391 2.739.783 3.913 1.174.392-.782.783-.782 1.174-1.174z" class="prefix__cls-2" data-name="Path 17" transform="translate(133.216 -83.317)"/>
        <path id="prefix__Path_18" d="M59.656 123.535c-1.174-.783-2.739 0-3.522 1.174s0 2.739 1.174 3.522a1.437 1.437 0 0 0 1.174.391 2.789 2.789 0 0 0 2.348-1.174 2.712 2.712 0 0 0-1.174-3.913z" class="prefix__cls-2" data-name="Path 18" transform="translate(112.518 -94.969)"/>
        <path id="prefix__Path_19" d="M45.086 120.522a2.959 2.959 0 0 0 1.565.391A2.789 2.789 0 0 0 49 119.739a2.41 2.41 0 0 0-.393-2.739H44.3a2.549 2.549 0 0 0 .786 3.522z" class="prefix__cls-2" data-name="Path 19" transform="translate(77.784 -113.087)"/>
        <path id="prefix__Path_20" d="M49.983 124a2.958 2.958 0 0 0 1.565.391 2.789 2.789 0 0 0 2.348-1.174 2.388 2.388 0 0 0-1.174-3.522h-.391a2.388 2.388 0 0 0-3.522 1.174A2.786 2.786 0 0 0 49.983 124z" class="prefix__cls-2" data-name="Path 20" transform="translate(91.669 -106.387)"/>
        <path id="prefix__Path_21" d="M54.965 126.7a1.438 1.438 0 0 0 1.174.391 2.789 2.789 0 0 0 2.348-1.174 2.388 2.388 0 0 0-1.174-3.522h-.391a2.388 2.388 0 0 0-3.522 1.174 4.042 4.042 0 0 0 1.565 3.131z" class="prefix__cls-2" data-name="Path 21" transform="translate(105.47 -98.522)"/>
        <path id="prefix__Path_22" d="M69.022 128.918a2.913 2.913 0 0 0-3.522.391 19.64 19.64 0 0 0 4.7.783z" class="prefix__cls-2" data-name="Path 22" transform="translate(140.718 -79.613)"/>
        <path id="prefix__Path_23" d="M62.27 130.539a1.438 1.438 0 0 0 1.174.391 2.789 2.789 0 0 0 2.348-1.174 2.388 2.388 0 0 0-1.174-3.522h-.391c-1.174-.783-2.739 0-3.522 1.174a2.463 2.463 0 0 0 1.565 3.131z" class="prefix__cls-2" data-name="Path 23" transform="translate(126.339 -87.104)"/>
        <path id="prefix__Path_24" d="M39.608 121.413a1.438 1.438 0 0 0 1.174.391 2.789 2.789 0 0 0 2.348-1.174 2.115 2.115 0 0 0-.783-3.13l-3.522.391-.391.391c-.782.783.001 2.348 1.174 3.131z" class="prefix__cls-2" data-name="Path 24" transform="translate(60.957 -111.63)"/>
        <path id="prefix__Path_25" d="M44.356 119c-1.565-.783-3.13-.391-3.522.783-.783 1.174 0 2.739 1.174 3.522a1.437 1.437 0 0 0 1.174.391 2.789 2.789 0 0 0 2.348-1.174A2.466 2.466 0 0 0 44.356 119z" class="prefix__cls-2" data-name="Path 25" transform="translate(67.948 -108.438)"/>
        <path id="prefix__Path_26" d="M52.905 126.356a2.388 2.388 0 0 0-1.174-3.522h-.391c-1.174-.783-2.739 0-3.522 1.174a2.462 2.462 0 0 0 0 2.348l3.522 1.174c.783-.391 1.565-.782 1.565-1.174z" class="prefix__cls-2" data-name="Path 26" transform="translate(88.356 -97.008)"/>
        <path id="prefix__Path_27" d="M49.056 121.535c-1.174-.783-2.739 0-3.522 1.174s0 2.739 1.174 3.522a1.437 1.437 0 0 0 1.174.391 2.789 2.789 0 0 0 2.348-1.174 2.712 2.712 0 0 0-1.174-3.913z" class="prefix__cls-2" data-name="Path 27" transform="translate(81.639 -100.795)"/>
        <path id="prefix__Path_28" d="M54.856 125.491a3.528 3.528 0 0 0-1.956-.391c.783.391 1.565.783 1.957.391z" class="prefix__cls-2" data-name="Path 28" transform="translate(104.013 -89.491)"/>
        <path id="prefix__Path_29" d="M45.874 124.93a2.789 2.789 0 0 0 2.348-1.174 2.388 2.388 0 0 0-1.174-3.522h-.391c-1.174-.783-2.739 0-3.522 1.174s0 2.739 1.174 3.522z" class="prefix__cls-2" data-name="Path 29" transform="translate(74.648 -104.582)"/>
        <path id="prefix__Path_30" d="M53.913 124.2a2.941 2.941 0 0 0-3.913.783v.391c1.565.391 3.522 1.174 5.087 1.565.391-.779 0-1.953-1.174-2.739z" class="prefix__cls-2" data-name="Path 30" transform="translate(95.565 -93.29)"/>
        <path id="prefix__Path_31" d="M40.074 125.53a2.789 2.789 0 0 0 2.348-1.174 2.388 2.388 0 0 0-1.174-3.522h-.391c-1.174-.783-2.739 0-3.522 1.174s0 2.739 1.174 3.522z" class="prefix__cls-2" data-name="Path 31" transform="translate(57.753 -102.834)"/>
        <path id="prefix__Path_32" d="M32.635 118.783c-.783 1.174 0 2.739 1.174 3.522a1.438 1.438 0 0 0 1.174.391 2.789 2.789 0 0 0 2.348-1.174A2.388 2.388 0 0 0 36.156 118h-.391l-2.348.391c-.391-.391-.782 0-.782.392z" class="prefix__cls-2" data-name="Path 32" transform="translate(44.061 -110.174)"/>
        <path id="prefix__Path_33" d="M38.556 119.435c-1.174-.783-2.739 0-3.522 1.174s0 2.739 1.174 3.522a1.437 1.437 0 0 0 1.174.391 2.789 2.789 0 0 0 2.348-1.174 3.542 3.542 0 0 0-1.174-3.913z" class="prefix__cls-2" data-name="Path 33" transform="translate(51.053 -106.913)"/>
        <path id="prefix__Path_34" d="M43.208 127.8a2.958 2.958 0 0 0 1.565.391 2.789 2.789 0 0 0 2.348-1.174 2.388 2.388 0 0 0-1.174-3.522h-.391a2.388 2.388 0 0 0-3.522 1.174c-.782 1.561 0 2.344 1.174 3.131z" class="prefix__cls-2" data-name="Path 34" transform="translate(71.444 -95.317)"/>
        <path id="prefix__Path_35" d="M40.965 126.5a1.438 1.438 0 0 0 1.174.391 2.789 2.789 0 0 0 2.348-1.174 2.388 2.388 0 0 0-1.174-3.522h-.391a2.388 2.388 0 0 0-3.522 1.174c0 .779.391 2.731 1.565 3.131z" class="prefix__cls-2" data-name="Path 35" transform="translate(64.687 -99.104)"/>
        <path id="prefix__Path_36" d="M32.713 120.091a2.625 2.625 0 0 0-2.348 4.7h.391a1.438 1.438 0 0 0 1.174.391A2.789 2.789 0 0 0 34.278 124a3.2 3.2 0 0 0-1.565-3.913z" class="prefix__cls-2" data-name="Path 36" transform="translate(33.809 -105.222)"/>
        <path id="prefix__Path_37" d="M34.274 126.187a2.789 2.789 0 0 0 2.348-1.174 2.388 2.388 0 0 0-1.174-3.522h-.391a2.388 2.388 0 0 0-3.522 1.174c-.783 1.174 0 2.739 1.174 3.522z" class="prefix__cls-2" data-name="Path 37" transform="translate(40.857 -101.143)"/>
        <path id="prefix__Path_38" d="M42.083 131a2.957 2.957 0 0 0 1.565.391A2.789 2.789 0 0 0 46 130.213a2.388 2.388 0 0 0-1.174-3.522h-.391a2.388 2.388 0 0 0-3.522 1.174c-.395 1.174-.004 2.735 1.17 3.135z" class="prefix__cls-2" data-name="Path 38" transform="translate(68.656 -85.996)"/>
        <path id="prefix__Path_39" d="M38.974 128.73a2.789 2.789 0 0 0 2.348-1.174 2.388 2.388 0 0 0-1.174-3.522h-.391c-1.174-.783-2.739 0-3.522 1.174s0 2.739 1.174 3.522z" class="prefix__cls-2" data-name="Path 39" transform="translate(54.548 -93.513)"/>
        <path id="prefix__Path_40" d="M40.041 129.739a1.437 1.437 0 0 0 1.174.391 2.789 2.789 0 0 0 2.348-1.174 2.388 2.388 0 0 0-1.174-3.522H42c-1.174-.783-2.739 0-3.522 1.174-.394.783.389 2.348 1.563 3.131z" class="prefix__cls-2" data-name="Path 40" transform="translate(61.698 -89.435)"/>
        <path id="prefix__Path_41" d="M35.165 127.1a1.438 1.438 0 0 0 1.174.391 2.789 2.789 0 0 0 2.348-1.174 2.388 2.388 0 0 0-1.174-3.522h-.391a2.388 2.388 0 0 0-3.522 1.174 4.041 4.041 0 0 0 1.565 3.131z" class="prefix__cls-2" data-name="Path 41" transform="translate(47.791 -97.357)"/>
        <path id="prefix__Path_42" d="M30.413 118.791a2.625 2.625 0 0 0-2.348 4.7h.391a1.438 1.438 0 0 0 1.174.391 2.789 2.789 0 0 0 2.348-1.174 3.72 3.72 0 0 0-1.565-3.913z" class="prefix__cls-2" data-name="Path 42" transform="translate(27.109 -109.009)"/>
        <path id="prefix__Path_43" d="M26.021 122.856a2.388 2.388 0 0 0-1.174-3.522h-.391c-1.174-.783-2.739 0-3.522 1.174s0 2.739 1.174 3.522a1.437 1.437 0 0 0 1.174.391 3.961 3.961 0 0 0 2.739-1.565z" class="prefix__cls-2" data-name="Path 43" transform="translate(9.979 -107.204)"/>
        <path id="prefix__Path_45" d="M33.174 129.33a2.789 2.789 0 0 0 2.348-1.174 2.388 2.388 0 0 0-1.174-3.522h-.391c-1.174-.783-2.739 0-3.522 1.174s0 2.739 1.174 3.522z" class="prefix__cls-2" data-name="Path 45" transform="translate(37.652 -91.765)"/>
        <path id="prefix__Path_46" d="M41.24 128.6c-1.565-.782-3.13-.391-3.522.783a2.494 2.494 0 0 0 0 2.348h4.7a2.786 2.786 0 0 0-1.178-3.131z" class="prefix__cls-2" data-name="Path 46" transform="translate(58.934 -80.473)"/>
        <path id="prefix__Path_47" d="M28.321 124.156a2.388 2.388 0 0 0-1.174-3.522h-.391c-1.174-.783-2.739 0-3.522 1.174s0 2.739 1.174 3.522a1.438 1.438 0 0 0 1.174.391 2.817 2.817 0 0 0 2.739-1.565z" class="prefix__cls-2" data-name="Path 47" transform="translate(16.679 -103.417)"/>
        <path id="prefix__Path_48" d="M30.774 128.03a2.789 2.789 0 0 0 2.348-1.174 2.388 2.388 0 0 0-1.174-3.522h-.391c-1.174-.783-2.739 0-3.522 1.174s0 2.739 1.174 3.522z" class="prefix__cls-2" data-name="Path 48" transform="translate(30.661 -95.552)"/>
        <path id="prefix__Path_49" d="M34.27 130.3a1.437 1.437 0 0 0 1.174.391 2.789 2.789 0 0 0 2.348-1.174 2.388 2.388 0 0 0-1.174-3.522h-.391a2.388 2.388 0 0 0-3.522 1.174 2.463 2.463 0 0 0 1.565 3.131z" class="prefix__cls-2" data-name="Path 49" transform="translate(44.773 -88.035)"/>
        <path id="prefix__Path_50" d="M26.965 126.339a1.438 1.438 0 0 0 1.174.391 2.789 2.789 0 0 0 2.348-1.174 2.388 2.388 0 0 0-1.174-3.522h-.391c-1.174-.783-2.739 0-3.522 1.174a4.041 4.041 0 0 0 1.565 3.131z" class="prefix__cls-2" data-name="Path 50" transform="translate(23.904 -99.339)"/>
        <path id="prefix__Path_51" d="M36.465 131.7a1.437 1.437 0 0 0 1.174.391 2.789 2.789 0 0 0 2.348-1.174 2.388 2.388 0 0 0-1.174-3.522h-.391a2.388 2.388 0 0 0-3.522 1.174 4.041 4.041 0 0 0 1.565 3.131z" class="prefix__cls-2" data-name="Path 51" transform="translate(51.578 -83.956)"/>
        <path id="prefix__Path_52" d="M30.608 132.2a2.958 2.958 0 0 0 1.565.391 2.789 2.789 0 0 0 2.348-1.174 2.388 2.388 0 0 0-1.174-3.522h-.391a2.388 2.388 0 0 0-3.522 1.174c-.782.779.001 2.344 1.174 3.131z" class="prefix__cls-2" data-name="Path 52" transform="translate(34.739 -82.5)"/>
        <path id="prefix__Path_53" d="M24.878 126.113a2.388 2.388 0 0 0-1.174-3.522h-.391a2.547 2.547 0 0 0-3.13 3.913l2.348.783a2.366 2.366 0 0 0 2.347-1.174z" class="prefix__cls-2" data-name="Path 53" transform="translate(6.817 -97.939)"/>
        <path id="prefix__Path_54" d="M25.683 129.6a2.959 2.959 0 0 0 1.565.391 2.789 2.789 0 0 0 2.348-1.174 2.388 2.388 0 0 0-1.174-3.522h-.391a2.388 2.388 0 0 0-3.522 1.174 2.786 2.786 0 0 0 1.174 3.131z" class="prefix__cls-2" data-name="Path 54" transform="translate(20.882 -90.074)"/>
        <path id="prefix__Path_55" d="M35.222 129.218a2.913 2.913 0 0 0-3.522.391h3.913z" class="prefix__cls-2" data-name="Path 55" transform="translate(42.257 -78.739)"/>
        <path id="prefix__Path_56" d="M18.656 119.935c-1.174-.783-2.739 0-3.522 1.174s0 2.739 1.174 3.522a1.438 1.438 0 0 0 1.174.391 2.789 2.789 0 0 0 2.348-1.174 2.712 2.712 0 0 0-1.174-3.913z" class="prefix__cls-2" data-name="Path 56" transform="translate(-6.917 -105.456)"/>
        <path id="prefix__Path_57" d="M14.365 120.183a2.033 2.033 0 0 0 1.565-.783l-3.13.391a2.958 2.958 0 0 0 1.565.392z" class="prefix__cls-2" data-name="Path 57" transform="translate(-12.8 -106.096)"/>
        <path id="prefix__Path_58" d="M26.2 123.9a2.941 2.941 0 0 0-3.913.783 1.437 1.437 0 0 0-.391 1.174l4.7 1.956.391-.391c1.174-1.171.783-2.736-.787-3.522z" class="prefix__cls-2" data-name="Path 58" transform="translate(13.709 -94.164)"/>
        <path id="prefix__Path_59" d="M21.056 121.235c-1.174-.783-2.739 0-3.522 1.174s0 2.739 1.174 3.522a1.438 1.438 0 0 0 1.174.391 2.789 2.789 0 0 0 2.348-1.174 2.713 2.713 0 0 0-1.174-3.913z" class="prefix__cls-2" data-name="Path 59" transform="translate(.074 -101.669)"/>
        <path id="prefix__Path_60" d="M28.083 130.9a2.959 2.959 0 0 0 1.565.391A2.789 2.789 0 0 0 32 130.113a2.388 2.388 0 0 0-1.174-3.522h-.391a2.388 2.388 0 0 0-3.522 1.174 2.786 2.786 0 0 0 1.17 3.135z" class="prefix__cls-2" data-name="Path 60" transform="translate(27.873 -86.287)"/>
        <path id="prefix__Path_61" d="M24.756 127.035c-1.174-.783-2.739 0-3.522 1.174s0 2.739 1.174 3.522a1.438 1.438 0 0 0 1.174.391 2.789 2.789 0 0 0 2.348-1.174 2.713 2.713 0 0 0-1.174-3.913z" class="prefix__cls-2" data-name="Path 61" transform="translate(10.852 -84.774)"/>
        <path id="prefix__Path_62" d="M27.24 128.5c-1.565-.783-3.13-.391-3.522.783a1.19 1.19 0 0 0 0 1.565h5.087a3.218 3.218 0 0 0-1.565-2.348z" class="prefix__cls-2" data-name="Path 62" transform="translate(18.151 -80.764)"/>
        <path id="prefix__Path_63" d="M20.165 128.739a1.438 1.438 0 0 0 1.174.391 2.789 2.789 0 0 0 2.348-1.174 1.747 1.747 0 0 0 0-1.956l-5.087 1.565a5.4 5.4 0 0 0 1.565 1.174z" class="prefix__cls-2" data-name="Path 63" transform="translate(4.096 -86.87)"/>
        <path id="prefix__Path_64" d="M20.248 128.918a2.5 2.5 0 0 0-2.348 0z" class="prefix__cls-2" data-name="Path 64" transform="translate(2.057 -79.223)"/>
        <path id="prefix__Path_65" d="M18.956 127.691a2.388 2.388 0 0 0-3.522 1.174c-.783 1.174 0 2.739 1.174 3.522a1.438 1.438 0 0 0 1.174.391 2.649 2.649 0 0 0 1.174-5.087z" class="prefix__cls-2" data-name="Path 65" transform="translate(-6.043 -83.082)"/>
    </g>
    <path id="prefix__Path_77" d="M61.9 174.774L50.948 101.6l-7.435 1.174 9.387 62.609-22.3 19.174 30.522-3.522-.783-5.87z" class="prefix__cls-3" data-name="Path 77" transform="translate(85.226 290.096)"/>
    <path id="prefix__Path_78" d="M79.235 178.561l-22.7-17.609-3.909-60.652-7.826.391 4.7 74.348h1.17l-.391 4.3z" class="prefix__cls-3" data-name="Path 78" transform="translate(126.591 286.309)"/>
    <path id="prefix__Path_79" d="M21.5 72.091l7.435 183.522 30.913-1.565L57.5 53.7z" class="prefix__cls-4" data-name="Path 79" transform="translate(58.717 150.561)"/>
    <path id="prefix__Path_80" d="M123.391 255.37l-.783-197.218L90.13 80.457c3.131 47.743 8.218 140.478 10.17 174.913l-9.391.391c-2.739-54-7.043-127.565-9.783-169.435L79.957 87.5l-38.739-36L33 55.8l2.348 204.261 88.044-4.7z" class="prefix__cls-4" data-name="Path 80" transform="translate(92.217 144.152)"/>
    <path id="prefix__Path_81" d="M28.461 128.222l-6.261-4.7c27-36.778 46.957-88.431 46.957-88.822l7.435 2.739c-.391.783-20.739 52.826-48.13 90.783z" class="prefix__cls-3" data-name="Path 81" transform="translate(60.757 95.213)"/>
    <path id="prefix__Path_82" d="M93.835 111.513C59.4 82.948 41.791 40.687 41.4 38.73l7.043-3.13c0 .391 17.609 42.261 50.478 69.652l-5.087 6.261z" class="prefix__cls-3" data-name="Path 82" transform="translate(116.687 97.835)"/>
    <path id="prefix__Path_83" d="M51.2 33.075l4.3 31.7c-20.739-2.739-4.3-31.7-4.3-31.7zM53.157 22.9l-14.87 11.741L33.2 81.988l20.348-9 22.7 7.044S69.983 22.51 53.157 22.9z" class="prefix__cls-4" data-name="Path 83" transform="translate(92.8 60.838)"/>
    <path id="prefix__Path_84" d="M24.929 96.445c.783-16.826 12.913-30.13 27.391-29.739 14.478.783 25.435 14.87 24.652 32.087-.783 16.826-12.913 30.131-27.391 29.739-14.478-.783-25.435-14.87-24.652-32.087z" class="prefix__cls-1" data-name="Path 84" transform="translate(68.592 188.424)"/>
    <path id="prefix__Path_85" d="M75.48 102.3a29.924 29.924 0 0 1-7.435 18.4c-4.3 4.7-9.391 7.043-15.261 6.652a20.76 20.76 0 0 1-14.478-7.826c-3.913-5.087-5.87-11.739-5.478-19.174a29.924 29.924 0 0 1 7.435-18.391 19.6 19.6 0 0 1 3.13-2.739 13.9 13.9 0 0 0-.783 3.913c-.391 6.261 3.913 11.739 9.783 12.131 5.478.391 10.565-4.7 10.957-11.348a14.986 14.986 0 0 0-1.957-7.435A19.818 19.818 0 0 1 70 83.131a29.2 29.2 0 0 1 5.48 19.169zm1.957-25.043c-5.478-7.044-13.3-11.348-21.522-11.739A28.12 28.12 0 0 0 33.61 75.3c-5.87 6.261-9.391 15.261-9.783 24.261a38.815 38.815 0 0 0 7.435 25.044c5.478 7.043 13.3 11.348 21.522 11.739h1.174c7.826 0 15.261-3.522 21.13-9.783S84.48 111.3 84.871 102.3a40.25 40.25 0 0 0-7.435-25.043z" class="prefix__cls-3" data-name="Path 85" transform="translate(65.39 184.913)"/>
    <path id="prefix__Path_86" d="M41.429 96.245c.783-16.826 12.913-30.13 27.391-29.739 14.478.783 25.435 14.87 24.652 32.087-.783 16.826-12.913 30.13-27.391 29.739-14.481-.782-25.434-15.26-24.652-32.087z" class="prefix__cls-1" data-name="Path 86" transform="translate(116.658 187.842)"/>
    <path id="prefix__Path_87" d="M92.271 101.713a29.925 29.925 0 0 1-7.435 18.387c-4.3 4.7-9.391 7.044-15.261 6.652-5.478 0-10.565-2.739-14.478-7.826s-5.87-11.739-5.478-19.174a29.925 29.925 0 0 1 7.435-18.391 19.6 19.6 0 0 1 3.13-2.739 13.9 13.9 0 0 0-.783 3.913c-.391 6.261 3.913 11.739 9.783 12.13 5.478.391 10.565-4.7 10.957-11.348a14.986 14.986 0 0 0-1.957-7.435 19.818 19.818 0 0 1 8.609 6.652 35.435 35.435 0 0 1 5.478 19.174zm1.565-24.652c-5.478-7.044-13.3-11.348-21.522-11.739A28.12 28.12 0 0 0 50.01 75.1c-5.87 6.261-9.391 15.261-9.783 24.261a38.815 38.815 0 0 0 7.435 25.044c5.478 7.043 13.3 11.348 21.522 11.739h1.174c7.826 0 15.261-3.522 21.13-9.783s9.391-15.261 9.783-24.261a35.914 35.914 0 0 0-7.435-25.043z" class="prefix__cls-3" data-name="Path 87" transform="translate(113.164 184.33)"/>
    <path id="prefix__Path_88" d="M68.613 131.544c-9 0-16.826-2.348-23.087-7.043C31.048 113.935 28.7 95.543 28.7 94.761l10.957-1.174s1.957 14.87 12.522 22.7c6.261 4.7 14.478 5.87 24.652 4.3q17.609-2.935 23.478-12.913c4.7-7.435 2.739-16.043 2.348-16.043l10.565-3.13c0 .391 3.522 12.913-3.522 25.044-5.87 9.391-16.044 15.261-30.913 18-3.522-.391-6.652 0-10.174 0z" class="prefix__cls-3" data-name="Path 88" transform="translate(79.691 251.935)"/>
    <path id="prefix__Path_89" d="M19.987 168.961l-5.087-5.87 27-23.87-25.435-19.564L38.77 81.7l6.652 4.3-18.783 31.7 27.783 21.13z" class="prefix__cls-3" data-name="Path 89" transform="translate(39.491 232.126)"/>
    <path id="prefix__Path_90" d="M75.739 162.665l-20.348-29.739 20.348-16.435L55 84.4l6.652-4.3L86.3 118.057l-20.343 16.434L82 157.97z" class="prefix__cls-3" data-name="Path 90" transform="translate(156.304 227.465)"/>
    <path id="prefix__Path_91" d="M71.044 80.191L1 32.061 5.3 25.8l70.439 48.13z" class="prefix__cls-3" data-name="Path 91" transform="translate(-1 69.287)"/>
    <path id="prefix__Path_92" d="M49.917 61.178L14.7 15.4l6.261-4.7 35.217 45.783z" class="prefix__cls-3" data-name="Path 92" transform="translate(38.909 25.3)"/>
    <path id="prefix__Path_93" d="M39.926 49.63L32.1 3.065 39.926 1.5l7.826 46.957z" class="prefix__cls-3" data-name="Path 93" transform="translate(89.596 -1.5)"/>
    <path id="prefix__Path_94" d="M55.226 52.187L47.4 50.23 61.878 2.1l7.435 2.348z" class="prefix__cls-3" data-name="Path 94" transform="translate(134.165 .248)"/>
    <path id="prefix__Path_95" d="M60.17 59.47l-5.87-5.479L87.952 17.6l5.87 5.478z" class="prefix__cls-3" data-name="Path 95" transform="translate(154.265 45.4)"/>
    <path id="prefix__Path_96" d="M60.056 60.126L58.1 52.691c27-7.044 57.13-16.044 60.652-18.391a.383.383 0 0 0-.391.391l6.652 4.3c-1.174 1.174-3.522 5.087-64.957 21.13z" class="prefix__cls-3" data-name="Path 96" transform="translate(165.335 94.048)"/>
</svg>
